<svg xmlns="http://www.w3.org/2000/svg" xmlns:xlink="http://www.w3.org/1999/xlink" viewBox="0 0 235.33 209.45">
  <defs>
    <radialGradient id="radial-gradient" cx="-899.44" cy="-859.99" r="110.07" gradientTransform="translate(468.15 1298.77) rotate(29.93)" gradientUnits="userSpaceOnUse">
      <stop offset="0" stop-color="#ffd824"/>
      <stop offset="0.11" stop-color="#fbce25"/>
      <stop offset="0.31" stop-color="#f2b326"/>
      <stop offset="0.56" stop-color="#e28628"/>
      <stop offset="0.85" stop-color="#cd492b"/>
      <stop offset="1" stop-color="#c1272d"/>
    </radialGradient>
    <radialGradient id="radial-gradient-2" cx="-899.44" cy="-859.99" r="102.9" gradientTransform="translate(468.15 1298.77) rotate(29.93)" gradientUnits="userSpaceOnUse">
      <stop offset="0" stop-color="#fcee21"/>
      <stop offset="0.39" stop-color="#fbec21"/>
      <stop offset="0.53" stop-color="#f9e522"/>
      <stop offset="0.63" stop-color="#f6da22"/>
      <stop offset="0.71" stop-color="#f1c923"/>
      <stop offset="0.78" stop-color="#eab325"/>
      <stop offset="0.85" stop-color="#e29726"/>
      <stop offset="0.9" stop-color="#d97728"/>
      <stop offset="0.95" stop-color="#ce532a"/>
      <stop offset="1" stop-color="#c22a2d"/>
      <stop offset="1" stop-color="#c1272d"/>
    </radialGradient>
    <radialGradient id="radial-gradient-3" cx="117.67" cy="104.73" r="97.96" gradientUnits="userSpaceOnUse">
      <stop offset="0" stop-color="#ffd824"/>
      <stop offset="0.03" stop-color="#f7c225"/>
      <stop offset="0.08" stop-color="#eb9e27"/>
      <stop offset="0.13" stop-color="#df7e29"/>
      <stop offset="0.2" stop-color="#d6622a"/>
      <stop offset="0.27" stop-color="#ce4c2b"/>
      <stop offset="0.35" stop-color="#c83b2c"/>
      <stop offset="0.45" stop-color="#c4302d"/>
      <stop offset="0.6" stop-color="#c2292d"/>
      <stop offset="1" stop-color="#c1272d"/>
    </radialGradient>
    <radialGradient id="radial-gradient-4" cx="117.67" cy="104.73" r="87.45" gradientUnits="userSpaceOnUse">
      <stop offset="0" stop-color="#f15a24"/>
      <stop offset="0.27" stop-color="#ed5625"/>
      <stop offset="0.56" stop-color="#e14927"/>
      <stop offset="0.86" stop-color="#cd342b"/>
      <stop offset="1" stop-color="#c1272d"/>
    </radialGradient>
  </defs>
  <title>Asset 4</title>
  <g id="Layer_2" data-name="Layer 2">
    <g id="Layer_2-2" data-name="Layer 2">
      <g>
        <path d="M176.37,2.75C166.13,20.54,69,20.66,58.7,2.9,69,20.66,20.52,104.85,0,104.88c20.52,0,69.2,84,59,101.83,10.24-17.79,107.38-17.91,117.67-.15-10.28-17.76,38.18-102,58.7-102C214.81,104.6,166.13,20.54,176.37,2.75Z" fill="url(#radial-gradient)"/>
        <path d="M193.16,61c37.75-21.86-75.66-87.14-75.61-43.52-.06-43.62-113.3,22-75.5,43.72-37.8-21.76-37.64,109.1.11,87.24C4.42,170.3,117.83,235.59,117.78,192c.06,43.62,113.3-22,75.5-43.72C231.08,170,230.91,39.15,193.16,61Z" fill="url(#radial-gradient-2)"/>
      </g>
      <g>
        <path d="M117.67,0c0,18.27-74.88,61.5-90.7,52.36C42.79,61.5,42.79,148,27,157.09c15.82-9.13,90.7,34.1,90.7,52.36,0-18.27,74.88-61.5,90.7-52.36-15.82-9.13-15.82-95.59,0-104.73C192.54,61.5,117.67,18.27,117.67,0Z" fill="url(#radial-gradient-3)"/>
        <path d="M154.74,40.52c18.53-32.1-92.67-32.1-74.14,0C62.06,8.42,6.46,104.73,43.53,104.73c-37.07,0,18.53,96.31,37.07,64.21-18.53,32.1,92.67,32.1,74.14,0,18.53,32.1,74.14-64.21,37.07-64.21C228.88,104.73,173.27,8.42,154.74,40.52Z" fill="url(#radial-gradient-4)"/>
      </g>
    </g>
  </g>
</svg>
